<svg width="34" height="32" viewBox="0 0 34 32" fill="none" xmlns="http://www.w3.org/2000/svg">
<path d="M24.5967 2.19869C24.334 0.945985 23.1934 0 21.8291 0C21.5172 0 21.2641 0.245703 21.2641 0.549672C21.2641 0.85364 21.5172 1.09934 21.8291 1.09934C22.7635 1.09934 23.5239 1.8392 23.5239 2.74836C23.5239 3.65752 22.7635 4.39738 21.8291 4.39738C21.5172 4.39738 21.2641 4.64308 21.2641 4.94705C21.2641 5.25102 21.5172 5.49672 21.8291 5.49672C23.1928 5.49672 24.334 4.55073 24.5967 3.29803H31.998V8.24508H1.49121V3.29803H9.40038H11.0952C11.407 3.29803 11.6601 3.05233 11.6601 2.74836C11.6601 2.44439 11.407 2.19869 11.0952 2.19869H10.0693C10.3032 1.55997 10.9246 1.09934 11.6601 1.09934C12.5946 1.09934 13.355 1.8392 13.355 2.74836C13.355 3.65752 12.5946 4.39738 11.6601 4.39738C11.3483 4.39738 11.0952 4.64308 11.0952 4.94705C11.0952 5.25102 11.3483 5.49672 11.6601 5.49672C13.2177 5.49672 14.4848 4.2638 14.4848 2.74836C14.4848 1.23291 13.2177 0 11.6601 0C10.2964 0 9.15519 0.945985 8.8925 2.19869H0.361328V9.34442V31.3313H33.1279V9.34442V2.19869H24.5967ZM31.998 30.232H1.49121V9.34442H31.998V30.232Z" fill="white"/>
<path d="M15.0498 1.09934C15.9842 1.09934 16.7446 1.8392 16.7446 2.74836C16.7446 3.65752 15.9842 4.39738 15.0498 4.39738C14.738 4.39738 14.4849 4.64308 14.4849 4.94705C14.4849 5.25102 14.738 5.49672 15.0498 5.49672C16.6073 5.49672 17.8745 4.2638 17.8745 2.74836C17.8745 1.23291 16.6073 0 15.0498 0C14.738 0 14.4849 0.245703 14.4849 0.549672C14.4849 0.85364 14.738 1.09934 15.0498 1.09934Z" fill="white"/>
<path d="M18.4395 1.09934C19.3739 1.09934 20.1343 1.8392 20.1343 2.74836C20.1343 3.65752 19.3739 4.39738 18.4395 4.39738C18.1276 4.39738 17.8745 4.64308 17.8745 4.94705C17.8745 5.25102 18.1276 5.49672 18.4395 5.49672C19.997 5.49672 21.2642 4.2638 21.2642 2.74836C21.2642 1.23291 19.997 0 18.4395 0C18.1276 0 17.8745 0.245703 17.8745 0.549672C17.8745 0.85364 18.1276 1.09934 18.4395 1.09934Z" fill="white"/>
<path d="M5.4458 13.7417H17.8745C18.1863 13.7417 18.4394 13.496 18.4394 13.192C18.4394 12.888 18.1863 12.6423 17.8745 12.6423H5.4458C5.13395 12.6423 4.88086 12.888 4.88086 13.192C4.88086 13.496 5.13395 13.7417 5.4458 13.7417Z" fill="white"/>
<path d="M28.0434 21.4373H19.5693C19.2574 21.4373 19.0043 21.683 19.0043 21.9869C19.0043 22.2909 19.2574 22.5366 19.5693 22.5366H28.0434C28.3552 22.5366 28.6083 22.2909 28.6083 21.9869C28.6083 21.683 28.3552 21.4373 28.0434 21.4373Z" fill="white"/>
<path d="M5.4458 18.1394H11.0952C11.4071 18.1394 11.6601 17.8937 11.6601 17.5897C11.6601 17.2857 11.4071 17.04 11.0952 17.04H5.4458C5.13395 17.04 4.88086 17.2857 4.88086 17.5897C4.88086 17.8937 5.13395 18.1394 5.4458 18.1394Z" fill="white"/>
<path d="M28.0434 25.8347H22.394C22.0821 25.8347 21.829 26.0804 21.829 26.3844C21.829 26.6884 22.0821 26.9341 22.394 26.9341H28.0434C28.3552 26.9341 28.6083 26.6884 28.6083 26.3844C28.6083 26.0804 28.3552 25.8347 28.0434 25.8347Z" fill="white"/>
<path d="M16.1797 17.5897C16.1797 17.8937 16.4328 18.1394 16.7446 18.1394H25.2187C25.5306 18.1394 25.7837 17.8937 25.7837 17.5897C25.7837 17.2857 25.5306 17.04 25.2187 17.04H16.7446C16.4328 17.04 16.1797 17.2857 16.1797 17.5897Z" fill="white"/>
<path d="M14.321 17.9799C14.4227 17.8755 14.4849 17.7326 14.4849 17.5897C14.4849 17.4462 14.4227 17.3033 14.321 17.1994C14.112 16.996 13.7278 16.996 13.5188 17.1994C13.4171 17.3033 13.355 17.4462 13.355 17.5897C13.355 17.7326 13.4171 17.8755 13.5188 17.9799C13.6262 18.0838 13.773 18.1393 13.9199 18.1393C14.0668 18.1393 14.2137 18.0838 14.321 17.9799Z" fill="white"/>
<path d="M7.70557 21.9869C7.70557 22.2909 7.95866 22.5366 8.27051 22.5366H16.7446C17.0565 22.5366 17.3096 22.2909 17.3096 21.9869C17.3096 21.683 17.0565 21.4373 16.7446 21.4373H8.27051C7.95866 21.4373 7.70557 21.683 7.70557 21.9869Z" fill="white"/>
<path d="M5.4458 22.5366C5.59268 22.5366 5.73957 22.4762 5.84691 22.3772C5.9486 22.2728 6.01074 22.1299 6.01074 21.9869C6.01074 21.8435 5.9486 21.7006 5.84691 21.6022C5.63788 21.3933 5.25372 21.3933 5.04469 21.5967C4.943 21.7006 4.88086 21.8435 4.88086 21.9869C4.88086 22.1299 4.943 22.2728 5.04469 22.3772C5.15203 22.4762 5.29327 22.5366 5.4458 22.5366Z" fill="white"/>
<path d="M28.0434 18.1393C28.1903 18.1393 28.3372 18.0838 28.4445 17.9799C28.5518 17.8755 28.6083 17.7326 28.6083 17.5897C28.6083 17.4462 28.5518 17.3033 28.4445 17.1994C28.2298 16.996 27.8513 16.996 27.6423 17.1994C27.5406 17.3033 27.4785 17.4462 27.4785 17.5897C27.4785 17.7326 27.5406 17.8755 27.6423 17.9799C27.7496 18.0838 27.8965 18.1393 28.0434 18.1393Z" fill="white"/>
<path d="M19.5693 25.8347H5.4458C5.13395 25.8347 4.88086 26.0804 4.88086 26.3844C4.88086 26.6884 5.13395 26.9341 5.4458 26.9341H19.5693C19.8812 26.9341 20.1343 26.6884 20.1343 26.3844C20.1343 26.0804 19.8812 25.8347 19.5693 25.8347Z" fill="white"/>
</svg>
