<svg width="34" height="29" viewBox="0 0 34 29" fill="none" xmlns="http://www.w3.org/2000/svg">
<path d="M32.8511 9.76529L8.73057 0.829062C8.42205 0.715056 8.07929 0.872814 7.96553 1.18158C7.96528 1.18183 7.96528 1.18208 7.96503 1.18233L5.29489 8.45047C5.18138 8.75923 5.33964 9.10175 5.64841 9.21526H5.64891L8.44481 10.2418L7.82877 11.9202C7.71552 12.2289 7.87378 12.5709 8.18254 12.6844L13.7753 14.7378L13.3643 15.8566C12.9908 16.8587 13.3393 17.9867 14.2134 18.603V21.6432H6.19744C5.80942 20.7561 5.01537 20.1121 4.06707 19.9156V18.6645C4.06707 18.3355 3.80056 18.0687 3.47129 18.0687H1.06941C0.740397 18.0687 0.473633 18.3355 0.473633 18.6645V28.1963C0.473633 28.5255 0.740397 28.792 1.06941 28.792H3.47129C3.80056 28.792 4.06707 28.5255 4.06707 28.1963V26.9454C5.01537 26.7487 5.80942 26.1049 6.19744 25.2176H14.2134V25.8134C14.2134 26.8004 15.0134 27.6007 16.0005 27.6007C16.9875 27.6007 17.7878 26.8004 17.7878 25.8134V19.2138C18.3293 18.9453 18.7476 18.4795 18.9561 17.912L19.3671 16.7932L24.4004 18.64C24.4662 18.6643 24.5354 18.6765 24.6054 18.6765C24.8552 18.6765 25.0787 18.5208 25.1649 18.2862L25.3882 17.678C27.3268 18.0427 29.1939 16.7669 29.5584 14.8286C29.6932 14.1123 29.6057 13.372 29.3077 12.7069L32.9191 10.8526C33.2119 10.7026 33.3276 10.3436 33.1776 10.0508C33.1096 9.91779 32.9941 9.81529 32.8541 9.76354L32.8511 9.76529ZM15.4047 19.1458L15.898 19.3245C16.1225 19.405 16.358 19.4513 16.5962 19.4615V21.6432H15.4047V19.1458ZM2.87576 27.6007H1.6652V19.2603H2.87576V27.6007ZM5.25864 24.0263C5.25764 24.7833 4.78061 25.4581 4.06707 25.7116V21.1494C4.78061 21.4027 5.25764 22.0774 5.25864 22.8347V24.0263ZM6.4687 22.8347H16.5962V24.0263H6.4687V22.8347ZM16.0005 26.4092C15.6714 26.4092 15.4047 26.1424 15.4047 25.8134V25.2176H16.5962V25.8134C16.5962 26.1424 16.3295 26.4092 16.0005 26.4092ZM18.2488 16.3829L17.8378 17.5017C17.6108 18.1187 16.9265 18.4352 16.309 18.2087L15.1884 17.7982C14.5709 17.5714 14.2539 16.8869 14.4806 16.2691C14.4806 16.2691 14.4806 16.2691 14.4806 16.2689L14.8919 15.1508L17.9116 16.2594L18.2488 16.3829ZM24.2521 17.3182L9.15234 11.7734L9.56361 10.6546L18.5111 13.9403C18.7229 14.0173 18.9604 13.969 19.1251 13.815L20.797 12.2412L25.4842 13.9628L24.2521 17.3182ZM28.2801 14.9898C27.9026 16.0076 26.8873 16.6437 25.807 16.5389L26.7275 14.0313L28.2311 13.257C28.4664 13.8075 28.4839 14.427 28.2801 14.9898ZM26.2693 12.93C26.2377 12.9327 26.2065 12.9382 26.1757 12.9465L20.8642 10.9961C20.6525 10.9183 20.4149 10.9666 20.2504 11.1211L18.5766 12.6952L6.61871 8.30396L8.87733 2.15413L31.1675 10.4123L26.2693 12.93Z" fill="#E3B873"/>
<path d="M12.1292 8.70312L11.6038 10.1231M14.419 9.54316L13.8935 10.9631M16.641 10.3696L16.1155 11.7896" stroke="#E3B873" stroke-linecap="round"/>
</svg>
