<svg width="18" height="18" viewBox="0 0 18 18" fill="none" xmlns="http://www.w3.org/2000/svg">
<path fill-rule="evenodd" clip-rule="evenodd" d="M13.5 1.61538H4.5C2.90687 1.61538 1.61538 2.90687 1.61538 4.5V13.5C1.61538 15.0931 2.90687 16.3846 4.5 16.3846H13.5C15.0931 16.3846 16.3846 15.0931 16.3846 13.5V4.5C16.3846 2.90687 15.0931 1.61538 13.5 1.61538ZM4.5 0H13.5C15.9853 0 18 2.01472 18 4.5V13.5C18 15.9853 15.9853 18 13.5 18H4.5C2.01472 18 0 15.9853 0 13.5V4.5C0 2.01472 2.01472 0 4.5 0Z" fill="white"/>
<path fill-rule="evenodd" clip-rule="evenodd" d="M10.8005 9.87539C10.9928 9.50486 11.0633 9.08314 11.0021 8.67022C10.9396 8.24902 10.7433 7.85908 10.4422 7.558C10.1412 7.25691 9.75122 7.06064 9.33002 6.99818C8.9171 6.93695 8.49538 7.00748 8.12485 7.19974C7.75433 7.392 7.45386 7.6962 7.26618 8.06907C7.0785 8.44194 7.01318 8.86449 7.0795 9.27663C7.14582 9.68876 7.3404 10.0695 7.63557 10.3647C7.93075 10.6598 8.31148 10.8544 8.72361 10.9207C9.13575 10.9871 9.5583 10.9217 9.93117 10.7341C10.304 10.5464 10.6082 10.2459 10.8005 9.87539ZM12.2344 10.6194C12.5831 9.94727 12.711 9.18229 12.6 8.43327C12.4867 7.66924 12.1307 6.96191 11.5845 6.41575C11.0383 5.86959 10.331 5.51357 9.56697 5.40027C8.81795 5.2892 8.05297 5.41714 7.38085 5.76589C6.70874 6.11464 6.1637 6.66644 5.82326 7.34281C5.48283 8.01918 5.36433 8.78567 5.48463 9.53326C5.60493 10.2809 5.95789 10.9715 6.49332 11.5069C7.02875 12.0423 7.71938 12.3953 8.46698 12.5156C9.21457 12.6359 9.98106 12.5174 10.6574 12.177C11.3338 11.8365 11.8856 11.2915 12.2344 10.6194Z" fill="white"/>
</svg>
