<svg width="22" height="18" viewBox="0 0 22 18" fill="none" xmlns="http://www.w3.org/2000/svg">
<path fill-rule="evenodd" clip-rule="evenodd" d="M2.81745 1.57895C2.13054 1.57895 1.56528 2.14917 1.56528 2.84211V15.1579C1.56528 15.8508 2.13054 16.4211 2.81745 16.4211H19.0957C19.7826 16.4211 20.3479 15.8508 20.3479 15.1579V2.84211C20.3479 2.14917 19.7826 1.57895 19.0957 1.57895H2.81745ZM6.10352e-05 2.84211C6.10352e-05 1.27714 1.2661 0 2.81745 0H19.0957C20.6471 0 21.9131 1.27714 21.9131 2.84211V15.1579C21.9131 16.7229 20.6471 18 19.0957 18H2.81745C1.2661 18 6.10352e-05 16.7229 6.10352e-05 15.1579V2.84211Z" fill="white"/>
<path fill-rule="evenodd" clip-rule="evenodd" d="M0.141538 2.39003C0.389401 2.03283 0.877382 1.94596 1.23147 2.196L10.9566 9.0633L20.6817 2.196C21.0358 1.94596 21.5238 2.03283 21.7716 2.39003C22.0195 2.74723 21.9334 3.23949 21.5793 3.48953L11.4054 10.6737C11.1359 10.864 10.7773 10.864 10.5078 10.6737L0.333879 3.48953C-0.0202115 3.23949 -0.106326 2.74723 0.141538 2.39003Z" fill="white"/>
</svg>
