<?xml version="1.0" encoding="utf-8"?><svg viewBox="0 0 43 35" xmlns="http://www.w3.org/2000/svg" xmlns:xlink="http://www.w3.org/1999/xlink"><style>:root>svg{display:none}:root>svg:target{display:block}</style><svg viewBox="0 0 34 32" id="calendar" xmlns="http://www.w3.org/2000/svg"><path d="M24.597 2.199C24.334.946 23.193 0 21.829 0a.557.557 0 0 0-.565.55c0 .304.253.55.565.55.934 0 1.695.74 1.695 1.648 0 .91-.76 1.65-1.695 1.65a.557.557 0 0 0-.565.55c0 .303.253.549.565.549 1.364 0 2.505-.946 2.768-2.199h7.401v4.947H1.491V3.298h9.604a.557.557 0 0 0 .565-.55.557.557 0 0 0-.565-.55H10.07A1.69 1.69 0 0 1 11.66 1.1c.935 0 1.695.74 1.695 1.65 0 .909-.76 1.648-1.695 1.648a.557.557 0 0 0-.565.55c0 .304.253.55.565.55 1.558 0 2.825-1.233 2.825-2.749C14.485 1.233 13.218 0 11.66 0c-1.364 0-2.505.946-2.768 2.199H.363V31.33h32.766V2.2h-8.531zm7.401 28.033H1.491V9.344h30.507v20.888z"/><path d="M15.05 1.1c.934 0 1.695.74 1.695 1.648 0 .91-.76 1.65-1.695 1.65a.557.557 0 0 0-.565.55c0 .303.253.549.565.549 1.557 0 2.825-1.233 2.825-2.749C17.875 1.233 16.607 0 15.05 0a.557.557 0 0 0-.565.55c0 .304.253.55.565.55zM18.44 1.1c.934 0 1.694.74 1.694 1.648 0 .91-.76 1.65-1.695 1.65a.557.557 0 0 0-.564.55c0 .303.253.549.564.549 1.558 0 2.825-1.233 2.825-2.749C21.264 1.233 19.997 0 18.44 0a.557.557 0 0 0-.564.55c0 .304.253.55.564.55zM5.446 13.742h12.429a.557.557 0 0 0 .564-.55.557.557 0 0 0-.564-.55H5.445a.557.557 0 0 0-.564.55c0 .304.253.55.565.55zM28.043 21.437H19.57a.557.557 0 0 0-.565.55c0 .304.253.55.565.55h8.474a.557.557 0 0 0 .565-.55.557.557 0 0 0-.565-.55zM5.446 18.14h5.65a.557.557 0 0 0 .564-.55.557.557 0 0 0-.565-.55h-5.65a.557.557 0 0 0-.564.55c0 .304.253.55.565.55zM28.043 25.835h-5.649a.557.557 0 0 0-.565.55c0 .303.253.55.565.55h5.65a.557.557 0 0 0 .564-.55.557.557 0 0 0-.565-.55zM16.18 17.59c0 .304.253.55.565.55h8.474a.557.557 0 0 0 .565-.55.557.557 0 0 0-.565-.55h-8.474a.557.557 0 0 0-.565.55zM14.321 17.98a.57.57 0 0 0 .164-.39.568.568 0 0 0-.164-.39.604.604 0 0 0-.802 0 .568.568 0 0 0-.164.39.57.57 0 0 0 .164.39.58.58 0 0 0 .4.16.58.58 0 0 0 .402-.16zM7.706 21.987c0 .304.253.55.565.55h8.474a.557.557 0 0 0 .565-.55.557.557 0 0 0-.565-.55H8.27a.557.557 0 0 0-.565.55zM5.446 22.537c.147 0 .294-.06.4-.16a.57.57 0 0 0 .165-.39.545.545 0 0 0-.164-.385.598.598 0 0 0-.802-.005.568.568 0 0 0-.164.39.57.57 0 0 0 .164.39c.107.1.248.16.4.16zM28.043 18.14a.58.58 0 0 0 .402-.16.546.546 0 0 0 0-.78.604.604 0 0 0-.803 0 .568.568 0 0 0-.163.39.57.57 0 0 0 .163.39.58.58 0 0 0 .401.16zM19.57 25.835H5.445a.557.557 0 0 0-.565.55c0 .303.253.55.565.55h14.123a.557.557 0 0 0 .565-.55.557.557 0 0 0-.565-.55z"/></svg><svg viewBox="0 0 34 29" id="cam" xmlns="http://www.w3.org/2000/svg"><path d="M32.851 9.765L8.731.83a.595.595 0 0 0-.765.353h-.001L5.295 8.45a.596.596 0 0 0 .353.765l2.797 1.027-.616 1.678a.596.596 0 0 0 .354.764l5.592 2.054-.41 1.119a2.354 2.354 0 0 0 .848 2.746v3.04H6.197a2.987 2.987 0 0 0-2.13-1.727v-1.252a.596.596 0 0 0-.596-.595H1.07a.596.596 0 0 0-.595.596v9.531c0 .33.266.596.595.596h2.402c.33 0 .596-.267.596-.596v-1.25a2.987 2.987 0 0 0 2.13-1.728h8.016v.595a1.787 1.787 0 1 0 3.575 0v-6.6c.541-.268.96-.733 1.168-1.301l.411-1.119L24.4 18.64a.596.596 0 0 0 .764-.354l.224-.608a3.571 3.571 0 0 0 3.92-4.971l3.611-1.854a.596.596 0 0 0-.065-1.09l-.003.002zm-17.446 9.38l.493.18c.224.08.46.126.698.137v2.181h-1.191v-2.497zm-12.53 8.456h-1.21v-8.34h1.21v8.34zm2.384-3.575a1.791 1.791 0 0 1-1.192 1.686v-4.563a1.79 1.79 0 0 1 1.192 1.686v1.191zm1.21-1.191h10.127v1.191H6.47v-1.191zM16 26.409a.596.596 0 0 1-.595-.596v-.595h1.191v.595a.596.596 0 0 1-.596.596zm2.249-10.026l-.411 1.119a1.192 1.192 0 0 1-1.529.707l-1.12-.41a1.192 1.192 0 0 1-.708-1.53l.41-1.118 3.02 1.108.338.124zm6.003.935l-15.1-5.545.412-1.118 8.947 3.285a.6.6 0 0 0 .614-.125l1.672-1.574 4.687 1.722-1.232 3.355zm4.028-2.328a2.392 2.392 0 0 1-2.473 1.549l.92-2.508 1.504-.774c.235.55.253 1.17.05 1.733zm-2.01-2.06a.534.534 0 0 0-.094.017l-5.312-1.95a.596.596 0 0 0-.614.124l-1.673 1.574L6.619 8.304l2.258-6.15 22.29 8.258-4.898 2.518z"/><path d="M12.13 8.703l-.526 1.42m2.815-.58l-.526 1.42m2.748-.593l-.525 1.42" stroke-linecap="round"/></svg><svg viewBox="0 0 34 30" id="clients" xmlns="http://www.w3.org/2000/svg"><path d="M22.426 9.56l-4.845-1.454a3.426 3.426 0 0 0-1.108-.133v-.012h-5.89L.14 4.49.17 19.164l2.998 1.499 1.775-4.34 2.593 1.038.673-1.68.973.973-.908.909a1.695 1.695 0 0 0 1.14 2.89 1.693 1.693 0 0 0 1.63 1.63 1.693 1.693 0 0 0 1.63 1.63 1.695 1.695 0 0 0 1.69 1.636c.446 0 .883-.181 1.199-.497l.909-.909.365.365c.316.316.752.497 1.199.497.915 0 1.658-.729 1.69-1.636a1.693 1.693 0 0 0 1.63-1.63 1.693 1.693 0 0 0 1.63-1.63 1.695 1.695 0 0 0 1.637-1.69c0-.077-.013-.154-.023-.23l.78-.78.63 1.26 3.413-1.706 2.063 3.938 2.374-1.583V5.075L22.426 9.56zm-19.82 9.607l-1.349-.675L1.23 5.998l5.954 1.979-4.578 11.19zm4.326-3.218l-1.577-.63L8.218 8.32l1.558.518-2.844 7.11zm1.933 2.814c0-.16.065-.317.178-.431l.956-.955a.61.61 0 0 1 .862.862l-.956.955a.61.61 0 0 1-1.04-.43zm1.63 1.63c0-.16.065-.317.178-.43l.956-.956a.61.61 0 0 1 .862.862l-.956.955a.61.61 0 0 1-1.04-.43zm1.63 1.63c0-.16.065-.317.178-.43l.956-.956a.61.61 0 0 1 .862.862l-.956.956a.61.61 0 0 1-1.04-.43zm3.626 1.106l-.955.956a.61.61 0 0 1-.862-.862l.955-.956a.61.61 0 0 1 .862.862zm7.177-4.3a.613.613 0 0 1-.431-.178l-4.553-4.554-.769.769 4.553 4.553a.61.61 0 0 1-.862.862l-4.553-4.554-.768.769 4.553 4.553a.61.61 0 0 1-.862.862l-4.553-4.553-.768.768 4.553 4.553a.61.61 0 0 1-.862.862l-.613-.613c.011-.076.023-.152.023-.23 0-.914-.73-1.657-1.636-1.69a1.692 1.692 0 0 0-1.63-1.63 1.692 1.692 0 0 0-1.63-1.63 1.695 1.695 0 0 0-1.69-1.636c-.078 0-.154.012-.23.023l-1.552-1.552 2.215-5.535h3.211l-1.995 1.995a1.698 1.698 0 0 0 2.398 2.398l1.44-1.44a.836.836 0 0 1 1.12-.023l1.27 1.164c.422.387.891.709 1.393.96l3.659 3.687a.61.61 0 0 1-.43 1.04zm1.152-1.855l-2.233-2.251c.2.019.4.03.603.03v-1.087a5.031 5.031 0 0 1-3.408-1.325l-1.27-1.164c-.718-.659-1.935-.633-2.623.057l-1.44 1.44a.61.61 0 0 1-.863-.862l2.072-2.072a2.38 2.38 0 0 1 2.35-.592l4.8 1.44 2.8 5.598-.788.788zm2.417.039l-3.295-6.59 2.406-.944 3.312 6.322-2.423 1.212zm6.278 1.525l-.886.59L26.626 9.08l6.149-2.411v11.87z"/><circle cx="19.667" cy="1.701" r=".486"/><circle cx="7.41" cy="24.631" r=".486"/><circle cx="9.468" cy="26.319" r=".486"/><circle cx="11.817" cy="27.558" r=".486"/><circle cx="14.366" cy="28.35" r=".486"/><circle cx="22.214" cy="2.474" r=".486"/><circle cx="24.563" cy="3.729" r=".486"/><path d="M26.83 3.027v2.802h-2.833M5.01 24.314v-2.267h2.264" stroke-linecap="round" stroke-linejoin="round"/><path d="M7.8 5.01c1.536-1.336 2.512-1.95 4.352-2.669 1.951-.762 3.272-.94 5.392-.94M28.405 22.498c-1.142 1.78-3.267 3.519-4.996 4.473-1.834 1.013-3.799 1.583-6.416 1.72" stroke-linecap="round"/></svg><svg viewBox="0 0 18 18" id="instagram" xmlns="http://www.w3.org/2000/svg"><path fill-rule="evenodd" clip-rule="evenodd" d="M13.5 1.615h-9A2.885 2.885 0 0 0 1.615 4.5v9A2.885 2.885 0 0 0 4.5 16.385h9a2.885 2.885 0 0 0 2.885-2.885v-9A2.885 2.885 0 0 0 13.5 1.615zM4.5 0h9A4.5 4.5 0 0 1 18 4.5v9a4.5 4.5 0 0 1-4.5 4.5h-9A4.5 4.5 0 0 1 0 13.5v-9A4.5 4.5 0 0 1 4.5 0z"/><path fill-rule="evenodd" clip-rule="evenodd" d="M10.8 9.875a1.985 1.985 0 1 0-3.523-1.828A1.985 1.985 0 0 0 10.8 9.875zm1.434.744a3.6 3.6 0 1 0-6.392-3.316 3.6 3.6 0 0 0 6.392 3.316z"/></svg><svg viewBox="0 0 22 18" id="mail" xmlns="http://www.w3.org/2000/svg"><path fill-rule="evenodd" clip-rule="evenodd" d="M2.817 1.579c-.686 0-1.252.57-1.252 1.263v12.316c0 .693.566 1.263 1.252 1.263h16.279c.687 0 1.252-.57 1.252-1.263V2.842c0-.693-.565-1.263-1.252-1.263H2.817zM0 2.842C0 1.277 1.266 0 2.817 0h16.279c1.551 0 2.817 1.277 2.817 2.842v12.316c0 1.565-1.266 2.842-2.817 2.842H2.817C1.267 18 0 16.723 0 15.158V2.842z"/><path fill-rule="evenodd" clip-rule="evenodd" d="M.142 2.39a.778.778 0 0 1 1.09-.194l9.725 6.867 9.725-6.867a.778.778 0 0 1 1.09.194.794.794 0 0 1-.193 1.1l-10.174 7.184a.777.777 0 0 1-.897 0L.334 3.49a.794.794 0 0 1-.192-1.1z"/></svg><svg viewBox="0 0 43 15" id="pagination-arrow" xmlns="http://www.w3.org/2000/svg"><path fill-rule="evenodd" clip-rule="evenodd" d="M7.638 14.276L1 7.638 7.638 1l.948.947-5.69 5.69 5.69 5.691-.948.948z"/><path fill-rule="evenodd" clip-rule="evenodd" d="M1.948 6.968h40.508v1.34H1.948v-1.34z"/></svg><svg viewBox="0 0 41 35" id="pig" xmlns="http://www.w3.org/2000/svg"><path d="M20.84 24.72a.68.68 0 0 0-.687.672v1.324a.68.68 0 0 0 .687.671c.378 0 .686-.299.686-.67v-1.325a.679.679 0 0 0-.686-.671z" stroke-width=".1"/><path d="M37.558 15.443a13.125 13.125 0 0 0-2.926-5.883 13.655 13.655 0 0 0-5.22-3.716c-.33-1.336-1.02-2.714-2.373-3.751C25.72 1.083 24.393.888 24.334.88a.699.699 0 0 0-.547.157.664.664 0 0 0-.237.507v3.304h-2.225c-.589-1.914-2.41-3.312-4.562-3.312-2.198 0-4.053 1.46-4.6 3.439a13.676 13.676 0 0 0-8.194 4.23l.037.034-.037-.034C1.7 11.646.45 14.807.45 18.105c0 7.39 3.934 13.4 5.14 15.065a2.06 2.06 0 0 0 1.668.842H9.97c1.127 0 2.046-.895 2.046-1.996v-.802c.67.098 1.35.148 2.03.148h6.108v.654c0 1.102.919 1.996 2.046 1.996h2.977c.958 0 1.8-.663 2-1.578l.32-1.456c4.177-1.002 7.536-3.858 9.2-7.565h2.488c.752 0 1.366-.597 1.366-1.333v-5.3a1.31 1.31 0 0 0-.4-.943 1.374 1.374 0 0 0-.966-.39h-1.625v-.004zm1.618 6.586v.042h-1.965c.336-1.044.543-2.14.603-3.269a.677.677 0 0 0-.65-.705.681.681 0 0 0-.722.636c-.267 5.022-3.756 9.316-8.62 10.766l.872-3.966a.671.671 0 0 0-.528-.797.687.687 0 0 0-.816.515l-1.517 6.901a.672.672 0 0 1-.656.517h-2.979a.664.664 0 0 1-.671-.653v-2.65a.68.68 0 0 0-.687-.671.68.68 0 0 0-.687.671v.654h-6.107c-.682 0-1.363-.056-2.031-.165v-4.463a.679.679 0 0 0-.687-.671.68.68 0 0 0-.687.67v6.625c0 .359-.3.654-.672.654H7.26a.665.665 0 0 1-.548-.274c-1.147-1.585-4.887-7.3-4.887-14.291 0-2.963 1.123-5.804 3.162-7.998l-.036-.034.036.034a12.285 12.285 0 0 1 7.018-3.75c.015.387.08.77.191 1.14h-.188a.68.68 0 0 0-.687.672.68.68 0 0 0 .687.67h9.512a.68.68 0 0 0 .687-.67.68.68 0 0 0-.687-.671h-.188c.128-.423.195-.863.196-1.308h2.023v1.316a.68.68 0 0 0 .687.671.68.68 0 0 0 .687-.67V2.431c.594.23 1.419.678 2.105 1.533.711.888 1.277 2.217 1.277 4.204a.68.68 0 0 0 .687.67.68.68 0 0 0 .687-.67c0-.238-.008-.488-.026-.746 1.499.725 2.844 1.75 3.929 3.004a11.792 11.792 0 0 1 2.629 5.284c.13.625.693 1.078 1.337 1.078h1.627v5.24zM16.763 2.878c1.87 0 3.39 1.483 3.39 3.303 0 .455-.098.904-.282 1.317h-6.215a3.236 3.236 0 0 1-.282-1.317c0-1.82 1.52-3.303 3.39-3.303z" stroke-width=".1"/><path d="M28.412 15.883c.403-1.055 1.469-1.761 2.65-1.761 1.181 0 2.247.706 2.65 1.761l-.046.018a.617.617 0 0 1-.374.799l-4.88-.817zm0 0a.667.667 0 0 0 .404.864m-.404-.864l.404.864m0 0a.692.692 0 0 0 .883-.394l-.884.394zm4.253.042a.7.7 0 0 0 .24-.042l-3.61-.394c.202-.53.749-.89 1.363-.89s1.161.36 1.363.89c.104.27.366.436.644.436zM19.712 18.518c-.652-.442-1.492-.712-2.262-.925v-3.079c.595.078 1.098.25 1.455.463.37.221.568.478.568.706a.68.68 0 0 0 .687.671c.378 0 .687-.3.687-.67 0-.656-.374-1.243-.988-1.686-.605-.436-1.446-.737-2.409-.835v-.026a.68.68 0 0 0-.687-.671c-.378 0-.687.3-.687.67v.027c-.962.098-1.804.399-2.408.835-.615.443-.989 1.03-.989 1.685 0 .928.472 1.558 1.136 2.009.651.442 1.491.712 2.261.925v3.079c-.595-.078-1.098-.25-1.454-.463-.371-.221-.569-.477-.569-.706a.68.68 0 0 0-.687-.671.68.68 0 0 0-.687.671c0 .656.374 1.242.989 1.685.604.436 1.446.737 2.408.835v.026c0 .372.309.671.687.671a.68.68 0 0 0 .687-.67v-.027c.963-.098 1.804-.399 2.409-.835.614-.443.988-1.03.988-1.685 0-.928-.471-1.558-1.135-2.009zm-3.636-4.004v2.697c-.747-.233-1.251-.454-1.57-.695-.323-.246-.453-.51-.453-.833 0-.228.198-.485.569-.706.356-.213.86-.385 1.454-.463zm2.829 6.72c-.357.212-.86.385-1.455.462V19c.748.232 1.252.453 1.57.694.324.246.453.511.453.833 0 .229-.197.485-.568.706z" stroke-width=".1"/></svg><svg viewBox="0 0 12 13" id="play" xmlns="http://www.w3.org/2000/svg"><path d="M12 6.5l-9 5.63V.87l9 5.63z"/></svg><svg viewBox="0 0 28 28" id="repair" xmlns="http://www.w3.org/2000/svg"><path d="M26.406 21.143a3.688 3.688 0 0 0-1.931-.665c-2.555-1.673-4.229-2.929-5.206-3.906l-3.002-3.001 1.822-2.04c.345.196.716.324 1.087.377.28.047.466.047.653.047.373 0 .466 0 .84.326a.752.752 0 0 0-.28.606c0 .234.093.514.28.7L22.3 15.22c.233.28.606.42.98.42.373 0 .746-.14.979-.467l3.312-3.312c.28-.233.42-.606.42-.98 0-.372-.14-.699-.42-.979L25.939 8.27a.921.921 0 0 0-.653-.28c-.233 0-.466.14-.653.28-.373-.327-.373-.42-.373-.793 0-.187 0-.42-.093-.7a3.265 3.265 0 0 0-.933-1.819l-1.68-1.68c-.979-.979-1.445-1.445-2.705-2.005-2.705-1.26-5.457-1.026-9.468.793-.233.094-.327.28-.28.513a.454.454 0 0 0 .466.374h.607c2.052 0 3.125 0 4.99 1.865.817.817.841 2.07.109 2.991a.427.427 0 0 0-.248.134l-2.072 2.313-1.567-1.566C9.665 6.968 8.454 5.34 7.522 3.526a3.694 3.694 0 0 0-1.08-2.44C5.65.295 4.53-.078 3.41.015c-.14.047-.28.14-.326.233a.424.424 0 0 0 0 .467L4.39 3.046c-.28.606-.933.98-1.586.933l-1.353-2.24c-.046-.14-.233-.232-.373-.232-.14-.047-.28.046-.373.186a3.674 3.674 0 0 0 .98 5.084c.578.413 1.23.643 1.89.69l.022.01c1.819.933 3.452 2.145 5.177 3.871l1.706 1.667L.565 24.082c-.373.373-.56.886-.56 1.4 0 .512.187.979.56 1.352l.653.653c.373.326.84.513 1.306.513.467 0 .98-.186 1.353-.56l9.904-11.085 2.876 2.876c.979.979 2.237 2.702 3.913 5.217.06.898.428 1.736 1.078 2.386.7.7 1.633 1.073 2.612 1.073h.373c.14 0 .28-.094.373-.233a.424.424 0 0 0 0-.467l-1.352-2.285c.326-.607.933-.98 1.632-.933l1.306 2.239c.047.14.233.233.373.233.187-.047.327-.093.42-.233 1.12-1.68.653-3.919-.98-5.085zM15.77 4.072c-1.493-1.446-2.612-1.912-3.872-2.052 2.66-.84 4.618-.793 6.577.093 1.12.466 1.493.84 2.472 1.82l1.68 1.678c.373.373.606.84.652 1.306.047.233.047.42.047.56 0 .513.047.886.606 1.446.187.186.467.28.7.28.28 0 .513-.094.653-.28l1.633 1.632c.093.094.14.187.14.327s-.047.233-.14.326l-3.312 3.312a.451.451 0 0 1-.653 0l-1.633-1.633c.187-.14.28-.373.234-.652 0-.234-.094-.514-.28-.7-.56-.56-.933-.607-1.446-.607-.14 0-.327 0-.56-.046-.513-.047-.933-.28-1.306-.653l-2.006-2.006c1.027-1.26.933-3.032-.186-4.151zM1.125 2.952l.98 1.68c.093.14.233.233.373.233h.233c1.073.047 2.052-.513 2.519-1.446l.093-.233a.35.35 0 0 0 0-.42L4.297.994c.56.093 1.073.373 1.492.793.481.52.79 1.18.807 1.887a.48.48 0 0 0-.014.118c0 .216-.026.427-.074.63a2.86 2.86 0 0 1-1.185 1.656 2.822 2.822 0 0 1-3.125-.047 2.84 2.84 0 0 1-1.073-3.078zm8.302 7.743C8.028 9.25 6.63 8.13 5.137 7.244c.232-.094.512-.234.745-.373a3.674 3.674 0 0 0 1.446-1.82c.887 1.493 2.006 2.892 3.405 4.292l1.602 1.602-1.256 1.402-1.652-1.652zM3.224 26.741c-.373.373-.98.42-1.353.046l-.653-.606a.92.92 0 0 1-.28-.653c0-.28.094-.513.327-.746l.264-.296.669.669c.093.093.186.14.326.14s.233-.047.327-.14a.45.45 0 0 0 0-.653l-.706-.706.617-.69.742.743c.093.093.186.14.326.14s.233-.047.327-.14a.45.45 0 0 0 0-.653l-.779-.779L15.376 8.994l1.959 1.96-1.925 2.153a.479.479 0 0 0-.152.107l-1.866 2.099a.479.479 0 0 0-.114.178L3.224 26.741zm11.195-11.1l1.276-1.43 3.014 3.014c.84.887 2.286 2.006 4.385 3.405-.28.094-.56.234-.84.42-.578.362-.988.864-1.274 1.42l-.012.023a4.465 4.465 0 0 0-.157.345l-.006.015c-.015.036-.03.073-.043.11-.265-.39-.52-.756-.765-1.101l.625-.625a.451.451 0 0 0 0-.653.451.451 0 0 0-.653 0l-.52.52a39.845 39.845 0 0 0-.562-.745l.429-.428a.451.451 0 0 0 0-.653.45.45 0 0 0-.653 0l-.356.356a15.518 15.518 0 0 0-.95-1.056l-2.938-2.938zm12.5 9.327l-.98-1.679c-.093-.14-.233-.233-.373-.233h-.233c-1.073-.094-2.053.513-2.519 1.446l-.093.233a.35.35 0 0 0 0 .42l1.026 1.772a2.756 2.756 0 0 1-1.493-.793c-.472-.51-.777-1.155-.805-1.847a.484.484 0 0 0 .012-.112 2.804 2.804 0 0 1 1.26-2.332c.466-.326.98-.466 1.539-.466.56 0 1.12.186 1.586.513.98.7 1.4 1.959 1.073 3.078z"/></svg><svg viewBox="0 0 33 33" id="sizes" xmlns="http://www.w3.org/2000/svg"><path fill-rule="evenodd" clip-rule="evenodd" d="M3.25 1.382A.39.39 0 0 1 3.648 1h28.664a.39.39 0 0 1 .398.382v27.622a.39.39 0 0 1-.398.382.39.39 0 0 1-.399-.382V1.764H3.648a.39.39 0 0 1-.398-.382z" stroke-width=".5"/><path d="M3.668 29.562h.125V5.678l1.626 1.626a.52.52 0 1 0 .735-.735L3.641 4.055a.52.52 0 0 0-.736 0L.392 6.57a.52.52 0 1 0 .735.735l1.626-1.626v23.884h.915z" stroke-width=".25"/><path d="M2.752 29.832v.125H26.76l-1.634 1.625a.519.519 0 0 0 0 .736.524.524 0 0 0 .738 0l2.526-2.513a.518.518 0 0 0 0-.736l-2.526-2.514a.523.523 0 0 0-.738 0 .519.519 0 0 0 0 .736l1.634 1.626H2.752v.915z" stroke-width=".25"/><path fill-rule="evenodd" clip-rule="evenodd" d="M14.162 1.116a.395.395 0 0 1 0 .558l-4.74 4.74a.395.395 0 1 1-.558-.559l4.74-4.74a.395.395 0 0 1 .559 0zM32.462 19.942a.395.395 0 0 1 0 .559l-4.344 4.344a.395.395 0 0 1-.559-.558l4.345-4.345a.395.395 0 0 1 .558 0zM20.085 1.114a.395.395 0 0 1 .004.558L9.819 12.073a.395.395 0 0 1-.561-.555l10.268-10.4a.395.395 0 0 1 .559-.004zM32.594 13.359a.395.395 0 0 1 0 .558L22.588 23.923a.395.395 0 0 1-.558-.559L32.035 13.36a.395.395 0 0 1 .559 0zM26.408 1.249a.395.395 0 0 1-.004.559L9.947 18a.395.395 0 0 1-.554-.563L25.85 1.245a.395.395 0 0 1 .558.004zM32.594 7.172a.395.395 0 0 1 0 .558L16.006 24.318a.395.395 0 0 1-.559-.558L32.035 7.172a.395.395 0 0 1 .559 0zM32.33 1.247a.395.395 0 0 1 0 .558L9.687 24.45a.395.395 0 0 1-.558-.559L31.772 1.247a.395.395 0 0 1 .559 0z" stroke-width=".5" stroke-linecap="round" stroke-linejoin="round"/></svg><svg viewBox="0 0 9 14" id="slider-arrow" xmlns="http://www.w3.org/2000/svg"><path fill-rule="evenodd" clip-rule="evenodd" d="M2.434 1.522L7.914 7l-5.48 5.479-.782-.782L6.35 7 1.652 2.304l.782-.782z" stroke-width=".75"/></svg></svg>